<svg width="43" height="43" viewBox="0 0 43 43" fill="currentColor" xmlns="http://www.w3.org/2000/svg">
<g id="Vector">
<path d="M24.171 0.402141C24.2652 0.430974 24.3593 0.459807 24.4562 0.489514C26.3122 1.11708 27.6701 2.39591 28.5091 3.97698C28.9464 4.92289 29.1623 5.92605 29.1586 6.94794C29.1584 7.0339 29.1582 7.11987 29.1579 7.20844C29.1576 7.27394 29.1573 7.33943 29.157 7.40692C29.3278 7.40586 29.3278 7.40586 29.5021 7.40477C30.5751 7.39832 31.648 7.39355 32.721 7.39042C33.2726 7.38876 33.8243 7.3865 34.3759 7.3829C34.9082 7.37944 35.4404 7.37753 35.9727 7.37671C36.1758 7.37612 36.379 7.37497 36.5821 7.37325C36.8665 7.37094 37.1508 7.37062 37.4352 7.37077C37.5193 7.36963 37.6035 7.36848 37.6902 7.3673C38.0614 7.36939 38.274 7.3791 38.6004 7.54848C38.8888 7.84437 38.8729 8.0926 38.8719 8.47444C38.8719 8.56047 38.8719 8.6465 38.8719 8.73514C38.8714 8.82752 38.8709 8.9199 38.8705 9.01508C38.8703 9.15751 38.8703 9.15751 38.8701 9.30283C38.8696 9.60616 38.8685 9.90948 38.8673 10.2128C38.8669 10.4184 38.8665 10.6241 38.8661 10.8297C38.8651 11.3338 38.8636 11.838 38.8618 12.3421C39.0154 12.3402 39.0154 12.3402 39.172 12.3383C39.5534 12.334 39.9346 12.3312 40.316 12.329C40.4807 12.3278 40.6455 12.3262 40.8103 12.3241C41.0477 12.3212 41.285 12.3198 41.5224 12.3188C41.5956 12.3175 41.6688 12.3163 41.7442 12.315C42.1848 12.3149 42.4869 12.3611 42.8683 12.5809C43.0126 12.8389 42.9757 13.1224 42.9786 13.4061C42.9793 13.4723 42.98 13.5384 42.9808 13.6066C42.982 13.7467 42.983 13.8868 42.9837 14.0269C42.9852 14.2412 42.9891 14.4553 42.993 14.6695C42.9939 14.8055 42.9947 14.9416 42.9953 15.0777C42.9968 15.1417 42.9984 15.2058 43 15.2717C42.9988 15.5584 42.9876 15.7284 42.7936 15.9621C42.5144 16.138 42.294 16.1727 41.9613 16.1679C41.8493 16.1662 41.7373 16.1646 41.6218 16.1629C41.6226 16.2168 41.6234 16.2708 41.6242 16.3264C41.6321 16.8881 41.6375 17.4498 41.6414 18.0115C41.6432 18.2211 41.6456 18.4308 41.6487 18.6404C41.653 18.9417 41.6551 19.243 41.6566 19.5443C41.6585 19.638 41.6603 19.7317 41.6622 19.8283C41.6624 20.4785 41.6624 20.4784 41.4541 20.799C41.2373 20.96 41.1387 20.9908 40.8595 20.9836C40.7574 20.9838 40.7574 20.9838 40.6533 20.984C40.4644 20.9389 40.4644 20.9389 40.1973 20.6205C40.1973 19.1495 40.1973 17.6785 40.1973 16.1629C27.8571 16.1629 15.5169 16.1629 2.80271 16.1629C2.80271 20.6284 2.80271 25.094 2.80271 29.6948C3.24343 29.6948 3.68415 29.6948 4.13823 29.6948C4.13764 29.609 4.13705 29.5231 4.13643 29.4346C4.13102 28.6253 4.12702 27.816 4.12439 27.0067C4.123 26.5906 4.12111 26.1745 4.11808 25.7584C4.11518 25.3569 4.11358 24.9554 4.11289 24.5538C4.1124 24.4006 4.11143 24.2474 4.10999 24.0943C4.10805 23.8797 4.10778 23.6651 4.10791 23.4506C4.10695 23.3872 4.10599 23.3239 4.105 23.2587C4.10726 22.8961 4.15118 22.659 4.40534 22.3717C4.65956 22.258 4.87772 22.28 5.16191 22.278C5.22129 22.2775 5.28066 22.2769 5.34183 22.2764C5.5386 22.2748 5.73537 22.2739 5.93214 22.2731C5.99931 22.2728 6.06648 22.2724 6.13569 22.2721C6.49113 22.2705 6.84657 22.2693 7.20202 22.2686C7.56929 22.2677 7.93652 22.2649 8.30378 22.2618C8.58608 22.2597 8.86838 22.259 9.15069 22.2588C9.28608 22.2584 9.42147 22.2574 9.55686 22.256C9.74636 22.254 9.93574 22.2541 10.1253 22.2547C10.2331 22.2542 10.3409 22.2537 10.4519 22.2532C10.7804 22.2996 10.8809 22.3797 11.0829 22.6105C11.2257 22.8657 11.1835 23.1431 11.1821 23.4234C11.1821 23.491 11.1821 23.5586 11.1821 23.6282C11.1821 23.8522 11.1814 24.0761 11.1807 24.3001C11.1805 24.4551 11.1804 24.6102 11.1803 24.7652C11.1799 25.1737 11.1791 25.5823 11.1781 25.9908C11.177 26.4808 11.1766 26.9707 11.1761 27.4606C11.1752 28.2054 11.1735 28.9501 11.172 29.6948C12.5235 29.6948 13.8751 29.6948 15.2676 29.6948C15.2657 29.4071 15.2638 29.1195 15.2619 28.823C15.256 27.8737 15.2521 26.9244 15.2491 25.9751C15.2473 25.3993 15.2448 24.8236 15.2407 24.2479C15.2372 23.7462 15.2349 23.2444 15.2341 22.7426C15.2336 22.4769 15.2323 22.2112 15.2299 21.9455C15.2273 21.6489 15.227 21.3524 15.2271 21.0559C15.2259 20.9677 15.2246 20.8795 15.2233 20.7887C15.2238 20.7079 15.2242 20.627 15.2247 20.5438C15.2244 20.4736 15.2241 20.4035 15.2237 20.3312C15.2838 20.073 15.3887 19.9806 15.6237 19.8245C15.8501 19.7844 15.8501 19.7844 16.1103 19.784C16.2092 19.7831 16.308 19.7822 16.4099 19.7813C16.518 19.782 16.626 19.7826 16.7373 19.7833C16.8514 19.7827 16.9656 19.7822 17.0831 19.7816C17.3959 19.7801 17.7085 19.7807 18.0213 19.7817C18.3486 19.7825 18.6759 19.7818 19.0032 19.7813C19.5529 19.7807 20.1026 19.7814 20.6523 19.783C21.2877 19.7847 21.9231 19.7841 22.5585 19.7824C23.1042 19.7809 23.6498 19.7807 24.1954 19.7816C24.5213 19.7821 24.8471 19.7821 25.173 19.7811C25.5362 19.78 25.8994 19.7815 26.2627 19.7833C26.3707 19.7826 26.4788 19.782 26.5901 19.7813C26.689 19.7822 26.7878 19.7831 26.8897 19.784C26.9756 19.7842 27.0614 19.7843 27.1499 19.7844C27.4484 19.8372 27.5528 19.9257 27.7324 20.1429C27.7763 20.3312 27.7763 20.3312 27.7753 20.5438C27.776 20.665 27.776 20.665 27.7767 20.7887C27.7755 20.8768 27.7742 20.965 27.7729 21.0559C27.7729 21.1491 27.773 21.2423 27.773 21.3383C27.7728 21.6467 27.77 21.9551 27.7672 22.2635C27.7664 22.4772 27.766 22.6909 27.7657 22.9046C27.7646 23.4097 27.7617 23.9149 27.7581 24.4201C27.7541 24.9953 27.7521 25.5705 27.7504 26.1457C27.7466 27.3287 27.7401 28.5118 27.7324 29.6948C29.084 29.6948 30.4355 29.6948 31.828 29.6948C31.8249 29.1995 31.8218 28.7042 31.8186 28.1939C31.8173 27.8802 31.816 27.5664 31.815 27.2526C31.8134 26.7545 31.8115 26.2565 31.8079 25.7584C31.805 25.3569 31.8034 24.9554 31.8027 24.5538C31.8022 24.4006 31.8012 24.2474 31.7998 24.0943C31.7978 23.8797 31.7976 23.6651 31.7977 23.4506C31.7967 23.3872 31.7958 23.3239 31.7948 23.2587C31.7971 22.8961 31.841 22.659 32.0951 22.3717C32.3494 22.258 32.5675 22.28 32.8517 22.278C32.9111 22.2775 32.9705 22.2769 33.0316 22.2764C33.2284 22.2748 33.4252 22.2739 33.6219 22.2731C33.6891 22.2728 33.7563 22.2724 33.8255 22.2721C34.1809 22.2705 34.5364 22.2693 34.8918 22.2686C35.2591 22.2677 35.6263 22.2649 35.9936 22.2618C36.2759 22.2597 36.5582 22.259 36.8405 22.2588C36.9759 22.2584 37.1113 22.2574 37.2467 22.256C37.4362 22.254 37.6255 22.2541 37.815 22.2547C37.9229 22.2542 38.0307 22.2537 38.1417 22.2532C38.4716 22.2998 38.5731 22.3756 38.7727 22.6105C38.8849 22.9112 38.8735 23.1916 38.8719 23.5048C38.8719 23.5716 38.8719 23.6384 38.8719 23.7072C38.8719 23.9282 38.8712 24.1491 38.8705 24.3701C38.8703 24.5232 38.8702 24.6763 38.8701 24.8295C38.8697 25.2326 38.8689 25.6358 38.8679 26.039C38.867 26.4504 38.8666 26.8617 38.8661 27.2731C38.8652 28.0804 38.8636 28.8876 38.8618 29.6948C39.3025 29.6948 39.7432 29.6948 40.1973 29.6948C40.1964 29.5625 40.1964 29.5625 40.1955 29.4275C40.1901 28.597 40.1861 27.7666 40.1835 26.9361C40.1821 26.5092 40.1802 26.0822 40.1771 25.6552C40.1742 25.2434 40.1726 24.8315 40.172 24.4197C40.1715 24.2623 40.1705 24.105 40.1691 23.9477C40.1671 23.7278 40.1668 23.5078 40.167 23.2879C40.1655 23.1898 40.1655 23.1898 40.1641 23.0898C40.1668 22.6453 40.1668 22.6453 40.3141 22.4771C40.5624 22.3029 40.7778 22.2968 41.0876 22.2921C41.3371 22.4327 41.4897 22.5333 41.6218 22.7697C41.6316 23.0104 41.6359 23.2494 41.6362 23.4902C41.6366 23.5649 41.6371 23.6396 41.6375 23.7165C41.6388 23.9644 41.6394 24.2123 41.6399 24.4602C41.6404 24.6322 41.641 24.8041 41.6415 24.976C41.6424 25.3369 41.6429 25.6978 41.6432 26.0586C41.6437 26.5212 41.6459 26.9837 41.6484 27.4462C41.6501 27.8015 41.6505 28.1568 41.6507 28.5121C41.6509 28.6827 41.6516 28.8532 41.6528 29.0237C41.6543 29.2623 41.6542 29.5008 41.6536 29.7394C41.6544 29.8099 41.6552 29.8804 41.6561 29.9531C41.6532 30.3297 41.6316 30.5842 41.3547 30.8888C41.0715 31.0154 40.7656 30.9799 40.4546 30.9796C40.3791 30.9798 40.3035 30.9801 40.2257 30.9803C39.9712 30.981 39.7166 30.9811 39.4621 30.9813C39.2802 30.9816 39.0983 30.982 38.9164 30.9825C38.4212 30.9835 37.926 30.984 37.4308 30.9844C37.1217 30.9846 36.8125 30.9849 36.5034 30.9853C35.5371 30.9864 34.5707 30.9871 33.6043 30.9874C32.4873 30.9878 31.3703 30.9892 30.2533 30.9915C29.3909 30.9932 28.5285 30.994 27.666 30.9941C27.1504 30.9942 26.6349 30.9947 26.1193 30.9961C25.6345 30.9974 25.1498 30.9976 24.6649 30.9969C24.4868 30.9968 24.3086 30.9972 24.1304 30.998C23.8877 30.999 23.6449 30.9985 23.4021 30.9977C23.3312 30.9983 23.2603 30.999 23.1873 30.9996C22.9 30.9973 22.6925 30.9855 22.4377 30.8615C22.2363 30.6668 22.224 30.5135 22.2123 30.252C22.2735 30.0331 22.2735 30.0331 22.3903 29.854C23.5595 29.3314 25.0007 29.6948 26.3079 29.6948C26.3079 26.8579 26.3079 24.021 26.3079 21.0981C23.1347 21.0981 19.9615 21.0981 16.6921 21.0981C16.6921 23.935 16.6921 26.7719 16.6921 29.6948C17.8674 29.6948 19.0426 29.6948 20.2535 29.6948C20.6097 29.854 20.6097 29.854 20.7321 30.1177C20.7906 30.4262 20.7872 30.5447 20.6097 30.8092C20.2715 31.0108 20.0016 30.9908 19.6098 30.9892C19.5342 30.9895 19.4586 30.9898 19.3807 30.9901C19.1264 30.9909 18.8721 30.9906 18.6179 30.9903C18.436 30.9906 18.254 30.9911 18.0721 30.9915C17.5773 30.9926 17.0825 30.9926 16.5876 30.9924C16.175 30.9924 15.7623 30.9927 15.3496 30.9931C14.3763 30.994 13.403 30.994 12.4297 30.9936C11.4246 30.9931 10.4195 30.9941 9.41447 30.9958C8.5524 30.9972 7.69033 30.9976 6.82825 30.9974C6.313 30.9972 5.79776 30.9974 5.2825 30.9985C4.79806 30.9995 4.31364 30.9994 3.8292 30.9984C3.65117 30.9982 3.47314 30.9984 3.29512 30.999C3.05253 30.9999 2.81 30.9992 2.56742 30.9982C2.49658 30.9988 2.42574 30.9994 2.35276 31C2.06626 30.9975 1.85852 30.9855 1.60432 30.8621C1.32157 30.589 1.3658 30.2672 1.36745 29.9182C1.36737 29.8595 1.3673 29.8007 1.36722 29.7403C1.36707 29.543 1.36756 29.3457 1.36805 29.1485C1.36807 29.0073 1.36806 28.8661 1.36801 28.7249C1.36798 28.341 1.36851 27.9572 1.36913 27.5734C1.36968 27.1725 1.36974 26.7715 1.36984 26.3706C1.37012 25.6111 1.37085 24.8517 1.37174 24.0922C1.37274 23.2277 1.37323 22.3632 1.37367 21.4987C1.37461 19.7201 1.37617 17.9415 1.37816 16.1629C1.26694 16.1651 1.15573 16.1674 1.04114 16.1697C0.677726 16.1771 0.442466 16.1003 0.131669 15.9241C-0.0126448 15.666 0.0243187 15.3825 0.0214191 15.0989C0.0207004 15.0327 0.0199804 14.9665 0.01924 14.8984C0.0180077 14.7583 0.0170544 14.6182 0.0163544 14.478C0.014821 14.2638 0.0109135 14.0497 0.00698573 13.8355C0.00608415 13.6994 0.0053259 13.5634 0.00472508 13.4273C0.00316625 13.3632 0.00160607 13.2992 0 13.2333C0.00124424 12.9466 0.0123757 12.7765 0.206379 12.5429C0.597677 12.2964 0.992714 12.3318 1.45154 12.3343C1.56658 12.3345 1.56658 12.3345 1.68395 12.3347C1.92888 12.3351 2.17381 12.3361 2.41875 12.3371C2.58482 12.3375 2.75089 12.3379 2.91696 12.3382C3.32405 12.3391 3.73114 12.3405 4.13823 12.3421C4.13764 12.2881 4.13705 12.2342 4.13643 12.1786C4.13052 11.6169 4.1265 11.0552 4.12356 10.4935C4.12222 10.2839 4.12039 10.0742 4.11808 9.86462C4.11484 9.56329 4.11333 9.262 4.11215 8.96067C4.11077 8.86696 4.10939 8.77325 4.10797 8.6767C4.10795 8.58908 4.10793 8.50146 4.10791 8.41118C4.10732 8.33429 4.10672 8.2574 4.10611 8.17818C4.14471 7.92096 4.23453 7.77453 4.40534 7.56612C4.73727 7.36827 4.99941 7.38119 5.38402 7.38018C5.48859 7.37938 5.48859 7.37938 5.59526 7.37857C5.7427 7.37776 5.89013 7.37739 6.03757 7.37742C6.26252 7.37707 6.48731 7.37418 6.71224 7.37116C6.85564 7.37069 6.99905 7.37038 7.14246 7.37023C7.20943 7.36908 7.27641 7.36794 7.34541 7.36676C7.67392 7.3693 7.86108 7.3975 8.14101 7.55628C8.35392 7.75418 8.40444 7.8501 8.4119 8.12331C8.31717 8.4268 8.2672 8.50142 7.96672 8.68051C7.71573 8.69858 7.71573 8.69858 7.41478 8.69606C7.31783 8.69566 7.22089 8.69526 7.121 8.69485C6.99793 8.6934 6.87486 8.69195 6.74806 8.69046C6.35692 8.68718 5.96578 8.68389 5.56279 8.68051C5.56279 9.88884 5.56279 11.0972 5.56279 12.3421C8.29526 12.3421 11.0277 12.3421 13.843 12.3421C13.843 11.9481 13.843 11.5541 13.843 11.1481C13.5505 11.1506 13.5505 11.1506 13.252 11.1532C12.6077 11.1584 11.9635 11.1619 11.3192 11.1646C10.9285 11.1663 10.5379 11.1685 10.1472 11.1721C9.77028 11.1756 9.39333 11.1775 9.01634 11.1783C8.87249 11.1789 8.72866 11.18 8.58482 11.1818C8.38337 11.1841 8.18202 11.1844 7.98055 11.1842C7.86588 11.185 7.7512 11.1857 7.63306 11.1864C7.29463 11.1416 7.19072 11.0706 6.98734 10.8297C6.92423 10.5982 6.9571 10.4363 6.98734 10.1929C7.14864 9.98003 7.24355 9.95735 7.52155 9.87451C7.72496 9.86735 7.9286 9.86515 8.13216 9.86547C8.19386 9.86546 8.25556 9.86545 8.31912 9.86544C8.5229 9.86549 8.72668 9.86611 8.93046 9.86673C9.0718 9.86688 9.21315 9.867 9.3545 9.86707C9.72643 9.86738 10.0984 9.86816 10.4703 9.86904C10.8498 9.86986 11.2294 9.87022 11.609 9.87062C12.3537 9.87147 13.0983 9.87287 13.843 9.87451C13.843 9.48049 13.843 9.08647 13.843 8.68051C13.684 8.68239 13.684 8.68239 13.5217 8.6843C13.1282 8.68863 12.7346 8.69137 12.341 8.69363C12.1707 8.69483 12.0004 8.69646 11.8301 8.69853C11.5852 8.70143 11.3404 8.70278 11.0955 8.70383C10.9814 8.70568 10.9814 8.70568 10.865 8.70757C10.5513 8.70765 10.3392 8.70718 10.0576 8.57676C9.84742 8.36189 9.84739 8.16322 9.83645 7.88451C9.90354 7.68276 9.96017 7.60097 10.1502 7.47909C10.4859 7.36918 10.8105 7.38744 11.165 7.39137C11.2416 7.39159 11.3182 7.39182 11.397 7.39205C11.6411 7.39294 11.8851 7.39494 12.1291 7.39697C12.2948 7.39776 12.4604 7.39849 12.6261 7.39914C13.0317 7.4009 13.4374 7.40364 13.843 7.40692C13.8423 7.3442 13.8416 7.28148 13.8409 7.21686C13.8274 5.17529 14.5333 3.3725 16.0991 1.87442C18.1859 0.0895298 21.4626 -0.464682 24.171 0.402141ZM16.9592 2.94933C15.3359 4.54204 15.2249 6.4436 15.2415 8.49177C15.2419 8.65636 15.2422 8.82094 15.2423 8.98553C15.2437 9.58865 15.2474 10.1918 15.2509 10.7949C15.2564 12.146 15.2619 13.4972 15.2676 14.8893C19.381 14.8893 23.4944 14.8893 27.7324 14.8893C27.7379 13.5381 27.7435 12.187 27.7491 10.7949C27.7516 10.3709 27.754 9.94683 27.7565 9.50995C27.7574 9.12435 27.7574 9.12435 27.7579 8.73874C27.7583 8.56919 27.7593 8.39963 27.7606 8.23008C27.7762 6.20135 27.5346 4.42185 25.9517 2.86973C24.814 1.85252 23.227 1.35252 21.6464 1.27774C19.8597 1.27774 18.2482 1.84308 16.9592 2.94933ZM29.157 8.68051C29.157 9.07453 29.157 9.46855 29.157 9.87451C29.4367 9.87687 29.4367 9.87687 29.722 9.87929C30.3386 9.88462 30.9552 9.8908 31.5717 9.8974C31.9455 9.90137 32.3193 9.90506 32.6931 9.90809C33.0539 9.91103 33.4147 9.91472 33.7755 9.91893C33.913 9.9204 34.0506 9.92161 34.1881 9.92253C34.381 9.92388 34.5739 9.92619 34.7668 9.92873C34.8765 9.92979 34.9862 9.93085 35.0993 9.93194C35.4023 9.95509 35.7 9.99301 35.9236 10.1929C35.9386 10.3518 35.9386 10.3518 35.9403 10.5461C35.9416 10.6101 35.9428 10.674 35.9441 10.7398C35.9236 10.9093 35.9236 10.9093 35.7456 11.0685C35.474 11.0907 35.474 11.0907 35.1205 11.0939C35.0241 11.0951 35.0241 11.0951 34.9257 11.0963C34.7128 11.0988 34.4999 11.1001 34.2869 11.1015C34.1395 11.103 33.992 11.1045 33.8445 11.1061C33.4561 11.1102 33.0676 11.1134 32.6791 11.1163C32.2828 11.1195 31.8866 11.1236 31.4903 11.1276C30.7126 11.1353 29.9348 11.1419 29.157 11.1481C29.157 11.5421 29.157 11.9361 29.157 12.3421C31.8601 12.3421 34.5632 12.3421 37.3482 12.3421C37.3482 11.1338 37.3482 9.92545 37.3482 8.68051C34.6451 8.68051 31.942 8.68051 29.157 8.68051ZM1.46719 13.6157C1.46719 14.036 1.46719 14.4563 1.46719 14.8893C5.55121 14.8893 9.63523 14.8893 13.843 14.8893C13.843 14.469 13.843 14.0487 13.843 13.6157C9.75899 13.6157 5.67497 13.6157 1.46719 13.6157ZM29.157 13.6157C29.157 14.036 29.157 14.4563 29.157 14.8893C33.241 14.8893 37.325 14.8893 41.5328 14.8893C41.5328 14.469 41.5328 14.0487 41.5328 13.6157C37.4488 13.6157 33.3648 13.6157 29.157 13.6157ZM5.56279 23.5657C5.56279 25.5883 5.56279 27.6109 5.56279 29.6948C6.94372 29.6948 8.32464 29.6948 9.74742 29.6948C9.74742 27.6722 9.74742 25.6496 9.74742 23.5657C8.36649 23.5657 6.98556 23.5657 5.56279 23.5657ZM33.2526 23.5657C33.2526 25.5883 33.2526 27.6109 33.2526 29.6948C34.6335 29.6948 36.0144 29.6948 37.4372 29.6948C37.4372 27.6722 37.4372 25.6496 37.4372 23.5657C36.0563 23.5657 34.6754 23.5657 33.2526 23.5657Z" fill="currentColor"/>
<path d="M5.19629 32.4364C5.50391 32.5078 5.50391 32.5078 5.76758 32.7715C5.76758 33.1195 5.76758 33.4676 5.76758 33.8262C6.6667 33.8262 7.56582 33.8262 8.49219 33.8262C8.49219 33.5071 8.49219 33.1881 8.49219 32.8594C8.75586 32.5078 8.75586 32.5078 9.05249 32.4254C9.40407 32.4194 9.53872 32.4677 9.81055 32.6836C9.89844 32.8594 9.89844 32.8594 9.89844 33.8262C10.7976 33.8262 11.6967 33.8262 12.623 33.8262C12.623 33.4781 12.623 33.1301 12.623 32.7715C12.9349 32.4596 13.071 32.4426 13.502 32.4199C13.7052 32.4803 13.7052 32.4803 13.8535 32.5957C14.0293 32.9473 14.0293 32.9473 14.0293 33.8262C14.8994 33.8262 15.7695 33.8262 16.666 33.8262C16.666 33.5651 16.666 33.3041 16.666 33.0352C16.8088 32.7157 16.8999 32.6156 17.1934 32.4199C17.6223 32.4429 17.7617 32.4609 18.0723 32.7715C18.0723 33.1195 18.0723 33.4676 18.0723 33.8262C18.9714 33.8262 19.8705 33.8262 20.7969 33.8262C20.7969 33.5071 20.7969 33.1881 20.7969 32.8594C21.0605 32.5078 21.0605 32.5078 21.3572 32.4254C21.7088 32.4194 21.8434 32.4677 22.1152 32.6836C22.2031 32.8594 22.2031 32.8594 22.2031 33.8262C23.1022 33.8262 24.0014 33.8262 24.9277 33.8262C24.9277 33.4781 24.9277 33.1301 24.9277 32.7715C25.2404 32.4589 25.3716 32.4274 25.8066 32.4199C26.1079 32.6033 26.2219 32.6989 26.334 33.0352C26.334 33.2962 26.334 33.5572 26.334 33.8262C27.2041 33.8262 28.0742 33.8262 28.9707 33.8262C28.9707 33.5361 28.9707 33.2461 28.9707 32.9473C29.1465 32.5957 29.1465 32.5957 29.2948 32.4803C29.5922 32.3919 29.8142 32.4371 30.1133 32.5078C30.2003 32.5948 30.2873 32.6818 30.377 32.7715C30.377 33.1195 30.377 33.4676 30.377 33.8262C31.2761 33.8262 32.1752 33.8262 33.1016 33.8262C33.1016 33.5071 33.1016 33.1881 33.1016 32.8594C33.3652 32.5078 33.3652 32.5078 33.6619 32.4254C34.0134 32.4194 34.1481 32.4677 34.4199 32.6836C34.5078 32.8594 34.5078 32.8594 34.5078 33.8262C35.4069 33.8262 36.3061 33.8262 37.2324 33.8262C37.2324 33.4781 37.2324 33.1301 37.2324 32.7715C37.4137 32.5243 37.4137 32.5243 37.6719 32.4199C37.9868 32.4254 38.195 32.4403 38.4519 32.6287C38.6373 32.8964 38.6487 33.1326 38.6442 33.4471C38.6434 33.5182 38.6426 33.5892 38.6418 33.6624C38.6402 33.7435 38.6402 33.7435 38.6387 33.8262C38.7061 33.8248 38.7734 33.8234 38.8429 33.822C39.1483 33.8165 39.4538 33.8131 39.7593 33.8097C39.8653 33.8075 39.9714 33.8053 40.0806 33.803C40.1826 33.8021 40.2846 33.8013 40.3896 33.8004C40.5305 33.7984 40.5305 33.7984 40.6741 33.7962C40.9582 33.8303 41.0756 33.8875 41.2754 34.0898C41.3521 34.3912 41.3922 34.6077 41.3029 34.9083C41.1596 35.0926 41.0531 35.1462 40.8359 35.2324C40.5943 35.2524 40.5943 35.2524 40.321 35.2496C40.2326 35.2491 40.1443 35.2487 40.0532 35.2483C39.886 35.2459 39.886 35.2459 39.7153 35.2434C39.36 35.2398 39.0047 35.2362 38.6387 35.2324C38.6387 36.5666 38.6387 37.9008 38.6387 39.2754C39.3749 39.265 39.3749 39.265 40.1111 39.2516C40.249 39.2506 40.249 39.2506 40.3896 39.2496C40.4835 39.2483 40.5774 39.2469 40.6741 39.2455C40.9581 39.2795 41.0753 39.3373 41.2754 39.5391C41.3724 39.8883 41.3998 40.0743 41.2479 40.407C41.0996 40.5938 41.0996 40.5938 40.9238 40.6816C40.7516 40.6891 40.5792 40.6911 40.4068 40.6902C40.3043 40.6899 40.2017 40.6897 40.0961 40.6894C39.9886 40.6886 39.881 40.6879 39.7703 40.6871C39.6621 40.6867 39.5539 40.6863 39.4424 40.6859C39.1745 40.6849 38.9066 40.6834 38.6387 40.6816C38.6401 40.7357 38.6416 40.7897 38.6431 40.8454C38.6443 40.9164 38.6454 40.9875 38.6466 41.0607C38.648 41.131 38.6495 41.2014 38.651 41.2739C38.6321 41.5791 38.5001 41.787 38.2871 42C38.1148 42.0179 38.1148 42.0179 37.9026 42.022C37.833 42.0242 37.7635 42.0265 37.6918 42.0288C37.4961 42 37.4961 42 37.2324 41.7363C37.2324 41.3883 37.2324 41.0402 37.2324 40.6816C36.3333 40.6816 35.4342 40.6816 34.5078 40.6816C34.5078 40.9717 34.5078 41.2617 34.5078 41.5605C34.332 41.9121 34.332 41.9121 34.1562 42C33.5468 42.0492 33.5468 42.0492 33.2334 41.8846C33.1016 41.6484 33.1016 41.6484 33.1016 40.6816C32.2024 40.6816 31.3033 40.6816 30.377 40.6816C30.377 41.0007 30.377 41.3197 30.377 41.6484C30.1133 42 30.1133 42 29.9269 42.0498C29.5787 42.0492 29.3841 42.0453 29.097 41.8352C28.9707 41.5605 28.9707 41.5605 28.9707 40.6816C28.1006 40.6816 27.2305 40.6816 26.334 40.6816C26.334 40.9427 26.334 41.2037 26.334 41.4727C26.2321 41.6852 26.1474 41.835 25.9824 42C25.8101 42.0209 25.8101 42.0209 25.5979 42.0275C25.5283 42.0308 25.4588 42.034 25.3871 42.0374C25.1914 42 25.1914 42 24.9277 41.6484C24.9277 41.3294 24.9277 41.0104 24.9277 40.6816C24.0286 40.6816 23.1295 40.6816 22.2031 40.6816C22.2031 41.0007 22.2031 41.3197 22.2031 41.6484C22.0713 41.8846 22.0713 41.8846 21.8516 42C21.5042 42.0662 21.2432 42.0497 20.9287 41.8846C20.7969 41.6484 20.7969 41.6484 20.7969 40.6816C19.8978 40.6816 18.9986 40.6816 18.0723 40.6816C18.0723 41.0007 18.0723 41.3197 18.0723 41.6484C17.8086 42 17.8086 42 17.6191 42.0436C17.5171 42.0411 17.5171 42.0411 17.4131 42.0385C17.3451 42.0383 17.2771 42.0382 17.2071 42.0381C16.9743 41.9913 16.8976 41.9225 16.7539 41.7363C16.666 41.4727 16.666 41.4727 16.666 40.6816C15.7959 40.6816 14.9258 40.6816 14.0293 40.6816C14.0293 40.9427 14.0293 41.2037 14.0293 41.4727C13.9274 41.6852 13.8427 41.835 13.6777 42C13.5054 42.0209 13.5054 42.0209 13.2932 42.0275C13.2236 42.0308 13.1541 42.034 13.0824 42.0374C12.8867 42 12.8867 42 12.623 41.6484C12.623 41.3294 12.623 41.0104 12.623 40.6816C11.7239 40.6816 10.8248 40.6816 9.89844 40.6816C9.89844 41.0007 9.89844 41.3197 9.89844 41.6484C9.7666 41.8846 9.7666 41.8846 9.54688 42C9.22994 42.0536 8.94613 42.0727 8.67346 41.8792C8.38357 41.4358 8.49219 41.4006 8.49219 40.6816C7.59307 40.6816 6.69395 40.6816 5.76758 40.6816C5.76758 41.0297 5.76758 41.3777 5.76758 41.7363C5.50391 42 5.50391 42 5.31439 42.035C5.24641 42.0343 5.17844 42.0337 5.1084 42.033C5.00643 42.034 5.00643 42.034 4.9024 42.035C4.66802 41.9917 4.5932 41.9233 4.44922 41.7363C4.36478 41.483 4.35203 41.3234 4.35583 41.0607C4.35663 40.9896 4.35742 40.9186 4.35824 40.8454C4.35926 40.7914 4.36028 40.7373 4.36133 40.6816C4.29395 40.6835 4.22656 40.6853 4.15714 40.6872C3.85168 40.6945 3.54624 40.6991 3.24072 40.7036C3.13468 40.7066 3.02863 40.7095 2.91937 40.7125C2.76642 40.7142 2.76642 40.7142 2.61038 40.716C2.51649 40.7178 2.42259 40.7197 2.32585 40.7216C2.01439 40.6718 1.9158 40.576 1.72461 40.3301C1.62126 40.0062 1.60729 39.8658 1.75208 39.5555C1.90039 39.3633 1.90039 39.3633 2.07617 39.2754C2.24838 39.2679 2.42085 39.266 2.59322 39.2668C2.68557 39.267 2.77792 39.2672 2.87307 39.2675C3.04962 39.2687 3.04962 39.2687 3.22974 39.2699C3.60316 39.2717 3.97659 39.2735 4.36133 39.2754C4.36133 37.9412 4.36133 36.607 4.36133 35.2324C3.65403 35.2394 3.65403 35.2394 2.94675 35.2483C2.85841 35.2487 2.77007 35.2491 2.67905 35.2496C2.58883 35.2505 2.49862 35.2514 2.40568 35.2524C2.15951 35.232 2.01924 35.1884 1.8125 35.0566C1.62955 34.8214 1.63708 34.6947 1.64771 34.392C1.72461 34.0898 1.72461 34.0898 1.87181 33.9407C2.13372 33.7939 2.31107 33.796 2.61038 33.8004C2.71235 33.8013 2.81432 33.8021 2.91937 33.803C3.02542 33.8052 3.13146 33.8074 3.24072 33.8097C3.40183 33.8115 3.40183 33.8115 3.56619 33.8133C3.83128 33.8164 4.09628 33.8207 4.36133 33.8262C4.35999 33.7721 4.35865 33.718 4.35727 33.6622C4.35623 33.5911 4.35519 33.52 4.35412 33.4468C4.35278 33.3764 4.35144 33.306 4.35006 33.2334C4.36554 32.9611 4.45384 32.8049 4.625 32.5957C4.88867 32.4199 4.88867 32.4199 5.19629 32.4364ZM5.76758 35.2324C5.76758 36.5666 5.76758 37.9008 5.76758 39.2754C6.6667 39.2754 7.56582 39.2754 8.49219 39.2754C8.49219 37.9412 8.49219 36.607 8.49219 35.2324C7.59307 35.2324 6.69395 35.2324 5.76758 35.2324ZM9.89844 35.2324C9.89844 36.5666 9.89844 37.9008 9.89844 39.2754C10.7976 39.2754 11.6967 39.2754 12.623 39.2754C12.623 37.9412 12.623 36.607 12.623 35.2324C11.7239 35.2324 10.8248 35.2324 9.89844 35.2324ZM14.0293 35.2324C14.0293 36.5666 14.0293 37.9008 14.0293 39.2754C14.8994 39.2754 15.7695 39.2754 16.666 39.2754C16.666 37.9412 16.666 36.607 16.666 35.2324C15.7959 35.2324 14.9258 35.2324 14.0293 35.2324ZM18.0723 35.2324C18.0723 36.5666 18.0723 37.9008 18.0723 39.2754C18.9714 39.2754 19.8705 39.2754 20.7969 39.2754C20.7969 37.9412 20.7969 36.607 20.7969 35.2324C19.8978 35.2324 18.9986 35.2324 18.0723 35.2324ZM22.2031 35.2324C22.2031 36.5666 22.2031 37.9008 22.2031 39.2754C23.1022 39.2754 24.0014 39.2754 24.9277 39.2754C24.9277 37.9412 24.9277 36.607 24.9277 35.2324C24.0286 35.2324 23.1295 35.2324 22.2031 35.2324ZM26.334 35.2324C26.334 36.5666 26.334 37.9008 26.334 39.2754C27.2041 39.2754 28.0742 39.2754 28.9707 39.2754C28.9707 37.9412 28.9707 36.607 28.9707 35.2324C28.1006 35.2324 27.2305 35.2324 26.334 35.2324ZM30.377 35.2324C30.377 36.5666 30.377 37.9008 30.377 39.2754C31.2761 39.2754 32.1752 39.2754 33.1016 39.2754C33.1016 37.9412 33.1016 36.607 33.1016 35.2324C32.2024 35.2324 31.3033 35.2324 30.377 35.2324ZM34.5078 35.2324C34.5078 36.5666 34.5078 37.9008 34.5078 39.2754C35.4069 39.2754 36.3061 39.2754 37.2324 39.2754C37.2324 37.9412 37.2324 36.607 37.2324 35.2324C36.3333 35.2324 35.4342 35.2324 34.5078 35.2324Z" fill="currentColor"/>
<path d="M24.8226 4.9407C25.8472 5.66812 26.3705 6.80348 26.6133 8.01138C26.8118 9.4595 26.4198 10.7358 25.5617 11.8974C24.8426 12.779 23.8276 13.348 22.7132 13.554C21.1374 13.7061 19.8072 13.4001 18.5658 12.3894C17.6319 11.5289 17.0885 10.3331 17.0003 9.07156C16.9875 7.67821 17.3962 6.39021 18.3413 5.34959C20.092 3.6892 22.8772 3.57035 24.8226 4.9407ZM19.1701 6.64907C18.6115 7.34533 18.3654 8.12969 18.4175 9.02212C18.5386 9.99785 18.9174 10.799 19.6655 11.4453C20.5269 12.0916 21.3828 12.2517 22.4495 12.1477C23.4002 11.9555 24.1556 11.4723 24.7099 10.6732C25.1873 9.84505 25.3699 8.94818 25.1686 8.01138C24.9118 7.1211 24.4404 6.44133 23.68 5.90749C22.07 5.01969 20.4213 5.28578 19.1701 6.64907Z" fill="currentColor"/>
<path d="M32.7059 17.0581C32.7938 17.0574 32.7938 17.0574 32.8835 17.0568C33.0777 17.0555 33.2719 17.0549 33.4662 17.0544C33.6011 17.0539 33.7359 17.0534 33.8708 17.0529C34.1538 17.052 34.4368 17.0515 34.7198 17.0511C35.0823 17.0507 35.4448 17.0486 35.8074 17.0461C36.086 17.0444 36.3647 17.044 36.6434 17.0438C36.777 17.0436 36.9107 17.0429 37.0443 17.0417C37.2314 17.0402 37.4184 17.0404 37.6054 17.0409C37.7118 17.0406 37.8183 17.0403 37.9279 17.04C38.2235 17.0751 38.3437 17.1257 38.5508 17.3359C38.6553 17.6495 38.6546 17.9371 38.6565 18.2636C38.657 18.3285 38.6575 18.3934 38.6581 18.4603C38.6589 18.5976 38.6595 18.7348 38.6598 18.8721C38.6607 19.0814 38.6634 19.2906 38.6662 19.4999C38.6667 19.6334 38.6672 19.767 38.6675 19.9006C38.6686 19.9628 38.6697 20.0251 38.6708 20.0893C38.6691 20.4768 38.6146 20.7204 38.375 21.0273C38.061 21.2367 37.9209 21.2262 37.5478 21.2287C37.4911 21.2292 37.4343 21.2298 37.3758 21.2304C37.1882 21.2321 37.0006 21.2325 36.8129 21.2326C36.6823 21.2332 36.5517 21.2338 36.4211 21.2344C36.1473 21.2355 35.8735 21.2358 35.5997 21.2357C35.2493 21.2357 34.8989 21.2381 34.5485 21.2411C34.2787 21.2431 34.0089 21.2434 33.7391 21.2433C33.61 21.2435 33.4808 21.2443 33.3516 21.2457C33.1707 21.2474 32.9899 21.2469 32.8089 21.2458C32.6547 21.2462 32.6547 21.2462 32.4973 21.2466C32.1642 21.1939 32.0192 21.0888 31.7832 20.8516C31.6787 20.538 31.6794 20.2504 31.6775 19.9239C31.677 19.859 31.6765 19.7941 31.676 19.7272C31.6751 19.5899 31.6746 19.4527 31.6742 19.3154C31.6734 19.1061 31.6706 18.8969 31.6679 18.6876C31.6673 18.554 31.6668 18.4205 31.6665 18.2869C31.6654 18.2247 31.6643 18.1624 31.6632 18.0982C31.6649 17.7116 31.7212 17.4675 31.959 17.1602C32.2101 17.0346 32.4252 17.0597 32.7059 17.0581ZM33.1016 18.4785C33.1016 18.9136 33.1016 19.3486 33.1016 19.7969C34.4648 19.7969 35.828 19.7969 37.2324 19.7969C37.2324 19.3618 37.2324 18.9268 37.2324 18.4785C35.8693 18.4785 34.5061 18.4785 33.1016 18.4785Z" fill="currentColor"/>
<path d="M5.37188 17.0581C5.4598 17.0574 5.4598 17.0574 5.54949 17.0568C5.74373 17.0555 5.93796 17.0549 6.13221 17.0544C6.26708 17.0539 6.40196 17.0534 6.53683 17.0529C6.81981 17.052 7.10279 17.0515 7.38577 17.0511C7.74831 17.0507 8.11083 17.0486 8.47337 17.0461C8.75205 17.0444 9.03072 17.044 9.3094 17.0438C9.44305 17.0436 9.5767 17.0429 9.71035 17.0417C9.8974 17.0402 10.0844 17.0404 10.2714 17.0409C10.3779 17.0406 10.4843 17.0403 10.5939 17.04C10.8895 17.0751 11.0097 17.1257 11.2168 17.3359C11.3213 17.6495 11.3206 17.9371 11.3226 18.2636C11.3231 18.3285 11.3236 18.3934 11.3241 18.4603C11.3249 18.5976 11.3255 18.7348 11.3258 18.8721C11.3267 19.0814 11.3294 19.2906 11.3322 19.4999C11.3328 19.6334 11.3332 19.767 11.3335 19.9006C11.3346 19.9628 11.3357 20.0251 11.3368 20.0893C11.3351 20.4768 11.2806 20.7204 11.041 21.0273C10.727 21.2367 10.5869 21.2262 10.2138 21.2287C10.1571 21.2292 10.1003 21.2298 10.0418 21.2304C9.85418 21.2321 9.66657 21.2325 9.47892 21.2326C9.34832 21.2332 9.21773 21.2338 9.08713 21.2344C8.81332 21.2355 8.53952 21.2358 8.2657 21.2357C7.91527 21.2357 7.5649 21.2381 7.21449 21.2411C6.9447 21.2431 6.67493 21.2434 6.40514 21.2433C6.27598 21.2435 6.14681 21.2443 6.01766 21.2457C5.83671 21.2474 5.65591 21.2469 5.47496 21.2458C5.3207 21.2462 5.3207 21.2462 5.16332 21.2466C4.83018 21.1939 4.68517 21.0888 4.44924 20.8516C4.34472 20.538 4.34545 20.2504 4.3435 19.9239C4.343 19.859 4.3425 19.7941 4.34198 19.7272C4.34115 19.5899 4.34058 19.4527 4.34024 19.3154C4.33938 19.1061 4.33666 18.8969 4.33389 18.6876C4.33331 18.554 4.33285 18.4205 4.33251 18.2869C4.33143 18.2247 4.33034 18.1624 4.32922 18.0982C4.33095 17.7116 4.38721 17.4675 4.62502 17.1602C4.87613 17.0346 5.09117 17.0597 5.37188 17.0581ZM5.7676 18.4785C5.7676 18.9136 5.7676 19.3486 5.7676 19.7969C7.13078 19.7969 8.49397 19.7969 9.89846 19.7969C9.89846 19.3618 9.89846 18.9268 9.89846 18.4785C8.53528 18.4785 7.17209 18.4785 5.7676 18.4785Z" fill="currentColor"/>
<path d="M22.2737 6.7864C22.4753 6.98612 22.5334 7.09971 22.5632 7.38378C22.5601 7.46943 22.557 7.55508 22.5539 7.64333C22.5515 7.72989 22.5491 7.81645 22.5467 7.90563C22.5436 7.97134 22.5406 8.03705 22.5374 8.10476C22.6031 8.10068 22.6688 8.0966 22.7365 8.0924C23.4361 8.06676 23.4361 8.06676 23.7404 8.23659C23.8774 8.49757 23.9014 8.69259 23.9111 8.98366C23.819 9.27642 23.6804 9.3591 23.4163 9.51101C23.1221 9.55942 22.8349 9.55614 22.5374 9.54946C22.4592 9.55008 22.3811 9.5507 22.3005 9.55135C21.872 9.54719 21.5633 9.5312 21.2191 9.24733C21.0492 8.90769 21.1111 8.48933 21.1092 8.11574C21.1074 8.02726 21.1056 7.93877 21.1037 7.84761C21.1032 7.76229 21.1028 7.67698 21.1023 7.58909C21.1015 7.51104 21.1007 7.43299 21.0998 7.35258C21.1378 7.0926 21.2143 6.97504 21.3948 6.7864C21.7284 6.67522 21.933 6.70731 22.2737 6.7864Z" fill="currentColor"/>
</g>
</svg>
