<svg width="45" height="45" viewBox="0 0 45 45" fill="currentColor" xmlns="http://www.w3.org/2000/svg">
<g id="train 1" clip-path="url(#clip0_110_355)">
<path id="Vector" d="M0.944387 9.65619C1.03294 9.65579 1.1215 9.6554 1.21274 9.655C1.31076 9.65502 1.40879 9.65503 1.50979 9.65505C1.61337 9.65473 1.71696 9.6544 1.82369 9.65407C2.11217 9.65327 2.40064 9.65286 2.68913 9.65263C2.99999 9.65229 3.31085 9.65144 3.62171 9.65068C4.37353 9.64894 5.12534 9.64805 5.87717 9.64727C6.2317 9.64689 6.58623 9.64642 6.94075 9.64596C8.12055 9.64446 9.30035 9.64319 10.4801 9.64255C10.7865 9.64238 11.0929 9.64221 11.3993 9.64204C11.4754 9.642 11.5516 9.64196 11.63 9.64191C12.8597 9.64118 14.0895 9.63896 15.3192 9.6361C16.5835 9.63318 17.8478 9.63161 19.1122 9.63133C19.8213 9.63114 20.5304 9.63039 21.2395 9.62813C21.8443 9.6262 22.4492 9.62552 23.054 9.62637C23.3619 9.62676 23.6697 9.62662 23.9775 9.62489C25.3998 9.61822 26.7373 9.69733 28.125 10.0195C28.1899 10.0344 28.2547 10.0493 28.3215 10.0647C30.7829 10.6371 33.353 11.9673 35.0962 13.8239C35.2463 13.9768 35.4028 14.115 35.5658 14.2539C35.9601 14.5966 36.3307 14.9597 36.7003 15.3288C36.772 15.4 36.8437 15.4713 36.9176 15.5447C37.1528 15.7786 37.3876 16.0128 37.6223 16.2471C37.7435 16.3679 37.7435 16.3679 37.8672 16.4911C38.2507 16.8735 38.6341 17.256 39.0172 17.6388C39.4564 18.0776 39.8962 18.5158 40.3364 18.9535C40.6788 19.294 41.0207 19.6351 41.3623 19.9765C41.5653 20.1794 41.7686 20.3821 41.9723 20.5843C43.5677 22.1692 44.9969 23.7019 45.0385 26.0871C45.0263 27.6678 44.4165 29.0897 43.3301 30.2344C42.0938 31.4226 40.612 31.8634 38.9287 31.8422C38.8151 31.8418 38.7015 31.8414 38.5844 31.841C38.2862 31.84 37.988 31.8375 37.6898 31.8345C37.384 31.8318 37.0781 31.8306 36.7723 31.8293C36.175 31.8265 35.5777 31.822 34.9805 31.8164C34.9815 31.9075 34.9825 31.9986 34.9836 32.0925C34.9844 32.2128 34.9852 32.3332 34.986 32.4536C34.9867 32.5136 34.9874 32.5735 34.9882 32.6352C34.9897 32.935 34.973 33.1982 34.8926 33.4863C35.0079 33.4858 35.1233 33.4852 35.2421 33.4846C36.3297 33.4792 37.4173 33.4753 38.5048 33.4727C39.064 33.4713 39.6231 33.4694 40.1822 33.4665C40.7219 33.4636 41.2615 33.462 41.8012 33.4613C42.007 33.4608 42.2128 33.4599 42.4186 33.4585C42.707 33.4565 42.9955 33.4563 43.2839 33.4564C43.3688 33.4555 43.4537 33.4545 43.5412 33.4535C44.0359 33.4558 44.3897 33.506 44.8242 33.75C45.0597 34.1032 45.0612 34.3895 45 34.8047C44.8423 35.057 44.7379 35.1994 44.4727 35.332C44.3499 35.3406 44.2267 35.3437 44.1036 35.3441C43.9869 35.3448 43.9869 35.3448 43.8677 35.3454C43.7817 35.3455 43.6956 35.3455 43.607 35.3456C43.516 35.346 43.425 35.3463 43.3312 35.3467C43.0243 35.3479 42.7173 35.3485 42.4104 35.349C42.1911 35.3497 41.9719 35.3504 41.7526 35.3512C41.0932 35.3533 40.4338 35.3546 39.7745 35.3558C39.5883 35.3561 39.4021 35.3564 39.2159 35.3568C38.0602 35.359 36.9045 35.3609 35.7488 35.362C35.4811 35.3623 35.2134 35.3626 34.9456 35.3628C34.8458 35.3629 34.8458 35.3629 34.7439 35.363C33.6655 35.3641 32.5871 35.3671 31.5087 35.3707C30.402 35.3744 29.2953 35.3765 28.1886 35.377C27.567 35.3773 26.9455 35.3783 26.3239 35.3812C25.7393 35.3839 25.1548 35.3844 24.5703 35.3834C24.3554 35.3833 24.1406 35.3841 23.9258 35.3856C23.633 35.3876 23.3404 35.3869 23.0476 35.3855C22.9622 35.3867 22.8767 35.3879 22.7886 35.3892C22.3782 35.3843 22.2074 35.3795 21.878 35.1145C21.8222 35.0413 21.7665 34.968 21.709 34.8926C21.68 34.8636 21.651 34.8346 21.6211 34.8047C21.5698 34.189 21.5698 34.189 21.7694 33.8489C22.1805 33.4711 22.594 33.4613 23.1317 33.4664C23.2385 33.4663 23.2385 33.4663 23.3475 33.4663C23.5819 33.4664 23.8163 33.4678 24.0508 33.4692C24.2137 33.4695 24.3766 33.4698 24.5396 33.4699C24.9677 33.4706 25.3958 33.4723 25.8239 33.4743C26.2611 33.4761 26.6982 33.4769 27.1354 33.4778C27.9926 33.4796 28.8498 33.4826 29.707 33.4863C29.678 33.3993 29.649 33.3123 29.6192 33.2227C29.6192 32.7586 29.6192 32.2945 29.6192 31.8164C23.1803 31.8164 16.7414 31.8164 10.1074 31.8164C10.1074 32.2515 10.1074 32.6865 10.1074 33.1348C10.0784 33.2508 10.0494 33.3668 10.0195 33.4863C10.1248 33.4855 10.1248 33.4855 10.2323 33.4846C10.8956 33.4793 11.5589 33.4753 12.2223 33.4727C12.5633 33.4713 12.9042 33.4694 13.2452 33.4665C13.5746 33.4636 13.904 33.462 14.2334 33.4613C14.3587 33.4608 14.484 33.4599 14.6094 33.4585C15.8506 33.4449 15.8506 33.4449 16.3477 33.75C16.5655 34.0495 16.6113 34.2203 16.6113 34.5905C16.5038 34.9603 16.383 35.0918 16.084 35.332C15.7882 35.3873 15.7882 35.3873 15.4435 35.3878C15.3799 35.3885 15.3163 35.3892 15.2508 35.3899C15.0382 35.3917 14.8257 35.3903 14.613 35.3889C14.4604 35.3895 14.3078 35.3903 14.1552 35.3912C13.741 35.3932 13.3268 35.3925 12.9126 35.3911C12.4791 35.39 12.0457 35.391 11.6122 35.3917C10.8843 35.3925 10.1564 35.3914 9.42847 35.3893C8.58686 35.3869 7.74531 35.3877 6.9037 35.3901C6.18116 35.3921 5.45862 35.3924 4.73608 35.3913C4.30451 35.3906 3.87297 35.3905 3.44141 35.3919C3.03567 35.3932 2.63 35.3923 2.22427 35.3898C2.07536 35.3892 1.92644 35.3894 1.77753 35.3903C1.57423 35.3915 1.37112 35.39 1.16783 35.3878C1.05409 35.3877 0.940344 35.3875 0.823153 35.3873C0.451647 35.3179 0.323273 35.1814 0.0879 34.8926C-0.0380508 34.6407 -0.026924 34.4696 9.37656e-06 34.1895C0.153281 33.8829 0.256643 33.7062 0.570998 33.5602C0.983557 33.4612 1.37292 33.4646 1.79559 33.4692C1.88263 33.4694 1.96967 33.4697 2.05935 33.4699C2.33605 33.4709 2.61272 33.4731 2.88941 33.4754C3.07755 33.4762 3.2657 33.477 3.45384 33.4778C3.9139 33.4797 4.37394 33.4826 4.83399 33.4863C4.79049 33.3558 4.79049 33.3558 4.7461 33.2227C4.73991 32.982 4.73788 32.7436 4.74061 32.5031C4.74101 32.4372 4.7414 32.3713 4.74181 32.3034C4.74285 32.1411 4.74442 31.9788 4.7461 31.8164C4.69423 31.8172 4.64235 31.818 4.5889 31.8188C4.04854 31.8266 3.5082 31.8319 2.9678 31.8357C2.76618 31.8375 2.56456 31.8399 2.36295 31.8429C2.073 31.8472 1.7831 31.8492 1.49312 31.8508C1.40311 31.8526 1.3131 31.8544 1.22036 31.8563C0.593194 31.8565 0.593194 31.8565 0.252759 31.6495C-0.0246419 31.3388 -0.034803 31.1019 -0.0308897 30.6968C9.37656e-06 30.4981 9.38028e-06 30.4981 0.197763 30.2344C0.598056 29.9433 0.961061 29.958 1.44377 29.9595C1.54322 29.9593 1.54322 29.9593 1.64468 29.9591C1.8681 29.9587 2.09152 29.9589 2.31495 29.9592C2.47625 29.959 2.63756 29.9588 2.79886 29.9586C3.15023 29.9582 3.5016 29.9581 3.85298 29.9582C4.42465 29.9583 4.99632 29.9579 5.56799 29.9573C6.39806 29.9566 7.22812 29.9562 8.05818 29.9559C9.37022 29.9554 10.6823 29.9539 11.9943 29.9523C12.4431 29.9517 12.8918 29.9511 13.3406 29.9506C13.4528 29.9505 13.5649 29.9503 13.6805 29.9502C14.9577 29.9486 16.2349 29.9472 17.5122 29.9459C17.5705 29.9458 17.6289 29.9457 17.689 29.9457C19.5812 29.9437 21.4733 29.9427 23.3654 29.942C25.3662 29.9413 27.3669 29.9393 29.3677 29.936C30.5657 29.934 31.7637 29.9332 32.9617 29.9337C33.7829 29.934 34.6041 29.933 35.4253 29.931C35.8991 29.9299 36.3729 29.9294 36.8467 29.9304C37.2807 29.9312 37.7147 29.9305 38.1487 29.9285C38.3054 29.9281 38.4622 29.9282 38.6189 29.929C39.878 29.935 40.92 29.7438 41.8909 28.8886C42.6779 27.998 43.1045 27.1156 43.0846 25.9075C43.0061 24.8577 42.5652 23.9658 41.8156 23.229C41.5467 23.0322 41.259 23.0442 40.9398 23.0515C40.8332 23.0507 40.8332 23.0507 40.7243 23.0499C40.4866 23.0489 40.2491 23.0516 40.0115 23.0543C39.8408 23.0543 39.6701 23.0541 39.4994 23.0536C39.1321 23.0531 38.7648 23.0542 38.3975 23.0566C37.8161 23.0604 37.2347 23.0602 36.6532 23.0595C35.5231 23.0586 34.393 23.0614 33.2628 23.0649C31.8263 23.0692 30.3897 23.0723 28.9532 23.0709C28.3759 23.0705 27.7986 23.0722 27.2213 23.0757C26.8611 23.0774 26.5008 23.0773 26.1406 23.0768C25.9743 23.0769 25.8081 23.0778 25.6419 23.0794C24.3758 23.0918 23.3783 22.9462 22.4293 22.0231C21.7837 21.2661 21.5007 20.3392 21.5442 19.3497C21.6589 18.5178 22.0389 17.6695 22.6641 17.0975C23.2331 16.689 23.8978 16.3389 24.6054 16.3338C24.7401 16.3325 24.7401 16.3325 24.8776 16.3312C24.9761 16.3307 25.0746 16.3301 25.1761 16.3296C25.3318 16.3283 25.3318 16.3283 25.4905 16.327C25.7751 16.3247 26.0596 16.3228 26.3441 16.321C26.6415 16.3191 26.9389 16.3167 27.2362 16.3143C27.7993 16.3099 28.3624 16.306 28.9255 16.3022C29.5665 16.2979 30.2076 16.293 30.8486 16.2882C32.1673 16.2782 33.486 16.2688 34.8047 16.2598C34.5556 16.0066 34.3056 15.7543 34.0556 15.5021C33.9857 15.4311 33.9159 15.3601 33.8439 15.2869C31.378 12.8053 27.971 11.5791 24.5104 11.5556C24.1704 11.5552 23.8304 11.5565 23.4903 11.5578C23.2425 11.5576 22.9947 11.557 22.7469 11.5563C22.2175 11.5552 21.688 11.5553 21.1585 11.5562C20.3923 11.5575 19.6262 11.5566 18.86 11.5552C17.6155 11.5529 16.371 11.5519 15.1264 11.552C15.0523 11.552 14.9781 11.552 14.9017 11.552C14.601 11.552 14.3004 11.5521 13.9997 11.5521C13.1692 11.5522 12.3388 11.5521 11.5083 11.5518C11.4338 11.5518 11.3594 11.5518 11.2826 11.5518C10.0406 11.5514 8.79855 11.5499 7.55652 11.5478C6.79201 11.5466 6.02752 11.5464 5.26301 11.5474C4.74015 11.548 4.2173 11.5477 3.69445 11.5468C3.39299 11.5462 3.09156 11.5461 2.79011 11.5472C2.46326 11.5481 2.13646 11.5474 1.80962 11.5464C1.71459 11.547 1.61955 11.5477 1.52163 11.5484C1.00635 11.5448 0.626698 11.5087 0.175791 11.25C-0.0596734 10.8968 -0.0611719 10.6105 9.37656e-06 10.1953C0.26925 9.76454 0.450967 9.6572 0.944387 9.65619ZM23.7525 18.6878C23.4582 19.0747 23.3431 19.5008 23.406 19.9835C23.5249 20.4221 23.7209 20.6961 24.0638 20.9891C24.7822 21.3768 25.6136 21.2933 26.4043 21.2895C26.5507 21.2895 26.6972 21.2895 26.8436 21.2896C27.2396 21.2896 27.6356 21.2886 28.0316 21.2874C28.446 21.2863 28.8604 21.2862 29.2749 21.286C30.0589 21.2854 30.843 21.284 31.6271 21.2822C32.52 21.2802 33.4129 21.2793 34.3059 21.2784C36.1421 21.2766 37.9783 21.2735 39.8145 21.2695C39.7807 21.232 39.7469 21.1945 39.7121 21.1558C39.4065 20.8091 39.1595 20.4571 38.9178 20.0619C38.3181 19.1859 37.5842 18.3864 36.5229 18.1162C34.7788 17.8192 32.9583 17.9356 31.1985 18.0012C30.4775 18.0275 29.7566 18.0375 29.0352 18.0471C27.9718 18.0619 26.9082 18.0814 25.8454 18.1185C25.6771 18.1242 25.5089 18.1287 25.3406 18.1332C24.6796 18.159 24.2463 18.2164 23.7525 18.6878ZM6.59181 31.8164C6.58637 31.9814 6.58093 32.1463 6.57533 32.3163C6.57227 32.4091 6.56921 32.5019 6.56606 32.5975C6.59527 32.9079 6.66943 33.0629 6.85548 33.3106C7.18511 33.5303 7.34402 33.5335 7.73438 33.4863C7.96555 33.2954 8.12755 33.1395 8.26173 32.8711C8.26794 32.6918 8.26913 32.5122 8.26722 32.3328C8.26541 32.1624 8.2636 31.992 8.26173 31.8164C7.71065 31.8164 7.15958 31.8164 6.59181 31.8164ZM31.4649 31.8164C31.4594 31.9814 31.454 32.1463 31.4484 32.3163C31.4453 32.4091 31.4423 32.5019 31.4391 32.5975C31.4683 32.9079 31.5425 33.0629 31.7285 33.3106C32.0582 33.5303 32.2171 33.5335 32.6074 33.4863C32.8386 33.2954 33.0006 33.1395 33.1348 32.8711C33.141 32.6918 33.1422 32.5122 33.1403 32.3328C33.1385 32.1624 33.1366 31.992 33.1348 31.8164C32.5837 31.8164 32.0326 31.8164 31.4649 31.8164Z" fill="currentColor"/>
<path id="Vector_2" d="M4.3156 16.3347C4.41058 16.3341 4.50557 16.3335 4.60343 16.3328C4.70812 16.3326 4.81281 16.3324 4.92067 16.3321C5.08554 16.3312 5.08554 16.3312 5.25374 16.3304C5.61909 16.3286 5.98442 16.3276 6.34977 16.3267C6.47572 16.3264 6.60166 16.326 6.72761 16.3256C7.31989 16.324 7.91217 16.3227 8.50445 16.322C9.1867 16.3211 9.86893 16.3188 10.5512 16.3153C11.0792 16.3126 11.6072 16.3113 12.1353 16.311C12.4502 16.3108 12.7652 16.31 13.0801 16.3078C13.4325 16.3054 13.7848 16.3058 14.1372 16.3064C14.2403 16.3052 14.3433 16.3041 14.4496 16.3029C15.534 16.3098 16.3654 16.6372 17.1387 17.4024C17.8947 18.3019 18.0282 19.25 17.9297 20.3906C17.7646 21.2213 17.3031 21.9084 16.633 22.4217C16.0143 22.8291 15.5029 23.0486 14.7532 23.0514C14.692 23.0519 14.6309 23.0524 14.5679 23.0528C14.364 23.0542 14.1602 23.0542 13.9564 23.0543C13.8098 23.055 13.6633 23.0557 13.5167 23.0565C13.1194 23.0584 12.7221 23.0592 12.3248 23.0596C12.0765 23.06 11.8283 23.0605 11.58 23.0611C10.7139 23.0633 9.84772 23.0644 8.98158 23.0648C8.17417 23.0651 7.36679 23.0677 6.5594 23.0714C5.86596 23.0744 5.17254 23.0758 4.4791 23.0758C4.06502 23.0759 3.65097 23.0767 3.2369 23.0792C2.84769 23.0815 2.45853 23.0817 2.06931 23.0803C1.92649 23.0801 1.78367 23.0807 1.64085 23.0821C1.44584 23.0839 1.25101 23.083 1.056 23.0814C0.946907 23.0816 0.837814 23.0817 0.725415 23.0819C0.360159 23.0122 0.229784 22.8739 1.52588e-05 22.5879C-0.0583496 22.3682 -0.0583496 22.3682 -0.0549164 22.1484C-0.0560493 22.0759 -0.0571823 22.0034 -0.0583496 21.9287C0.0266464 21.6087 0.186752 21.479 0.439468 21.2695C0.712325 21.2148 0.712325 21.2148 1.0242 21.2151C1.0818 21.2146 1.1394 21.214 1.19874 21.2135C1.39114 21.2122 1.58338 21.214 1.77577 21.2158C1.91396 21.2155 2.05215 21.2149 2.19034 21.2143C2.48769 21.2132 2.785 21.2135 3.08235 21.2149C3.55297 21.217 4.02355 21.216 4.49417 21.2145C5.32382 21.2124 6.15346 21.2129 6.98312 21.214C8.23088 21.2156 9.47863 21.2152 10.7264 21.2122C11.1937 21.2112 11.661 21.2116 12.1284 21.2131C12.4198 21.2138 12.7113 21.2134 13.0028 21.2128C13.1374 21.2127 13.272 21.2131 13.4066 21.214C14.6027 21.2317 14.6027 21.2317 15.6391 20.7037C15.9666 20.2968 16.0409 19.9947 16.0294 19.4771C15.9752 19.1046 15.8215 18.8116 15.5567 18.5449C15.0557 18.2098 14.5661 18.2437 13.9854 18.246C13.8808 18.2454 13.7761 18.2448 13.6683 18.2442C13.3822 18.2427 13.0963 18.2424 12.8102 18.2426C12.5103 18.2424 12.2104 18.2406 11.9105 18.2389C11.2131 18.2354 10.5157 18.2337 9.81833 18.2323C8.93066 18.2303 8.04299 18.2273 7.15533 18.2228C6.85704 18.2214 6.55876 18.2203 6.26047 18.2202C5.92785 18.2199 5.59525 18.2187 5.26264 18.2172C5.16428 18.2174 5.06591 18.2177 4.96457 18.2179C3.90749 18.2109 3.90749 18.2109 3.48268 17.8308C3.29663 17.5016 3.26359 17.2452 3.33986 16.875C3.62321 16.4311 3.80475 16.337 4.3156 16.3347Z" fill="currentColor"/>
<path id="Vector_3" d="M19.6874 33.6621C19.9197 33.8645 19.9501 34.0101 20.028 34.3103C20.0407 34.6782 19.9745 34.8503 19.7753 35.1562C19.4239 35.3905 19.1339 35.406 18.7206 35.332C18.4569 35.1178 18.4569 35.1178 18.2812 34.8926C18.2522 34.8636 18.2231 34.8346 18.1933 34.8047C18.142 34.189 18.142 34.189 18.3416 33.8489C18.785 33.4414 19.1467 33.4357 19.6874 33.6621Z" fill="currentColor"/>
<path id="Vector_4" d="M1.2305 16.3477C1.47747 16.5053 1.62683 16.613 1.75784 16.875C1.81563 17.2952 1.82084 17.5771 1.57107 17.9297C1.28534 18.1285 1.13864 18.1934 0.791044 18.1934C0.408732 18.0659 0.225682 18.0045 2.88598e-05 17.666C-0.0649795 17.2624 -0.0535503 16.9607 0.164824 16.6113C0.486777 16.3083 0.801505 16.286 1.2305 16.3477Z" fill="currentColor"/>
</g>
<defs>
<clipPath id="clip0_110_355">
<rect width="45" height="45" fill="currentColor"/>
</clipPath>
</defs>
</svg>
